<?xml version="1.0" encoding="UTF-8"?>
<svg version="1.1" xmlns="http://www.w3.org/2000/svg" width="173" height="158">
<path d="M0 0 C57.09 0 114.18 0 173 0 C173 52.14 173 104.28 173 158 C115.91 158 58.82 158 0 158 C0 105.86 0 53.72 0 0 Z " fill="#194FBF" transform="translate(0,0)"/>
<path d="M0 0 C3.63 0 7.26 0 11 0 C11 1.32 11 2.64 11 4 C17.6 4 24.2 4 31 4 C31 4.99 31 5.98 31 7 C32.32 7 33.64 7 35 7 C35 9.64 35 12.28 35 15 C38.63 15 42.26 15 46 15 C46 17.64 46 20.28 46 23 C47.32 23 48.64 23 50 23 C50 31.91 50 40.82 50 50 C48.68 50 47.36 50 46 50 C46 55.94 46 61.88 46 68 C55.9 68 65.8 68 76 68 C76 70.64 76 73.28 76 76 C78.64 76 81.28 76 84 76 C84 82.27 84 88.54 84 95 C82.68 95 81.36 95 80 95 C80 96.32 80 97.64 80 99 C78.68 99 77.36 99 76 99 C76 100.32 76 101.64 76 103 C39.7 103 3.4 103 -34 103 C-34 101.68 -34 100.36 -34 99 C-35.32 99 -36.64 99 -38 99 C-38 97.68 -38 96.36 -38 95 C-39.32 95 -40.64 95 -42 95 C-42 88.73 -42 82.46 -42 76 C-39.36 76 -36.72 76 -34 76 C-34 73.36 -34 70.72 -34 68 C-22.78 68 -11.56 68 0 68 C0 63.38 0 58.76 0 54 C0.99 54 1.98 54 3 54 C3 51.36 3 48.72 3 46 C4.32 46 5.64 46 7 46 C7 35.77 7 25.54 7 15 C5.68 15 4.36 15 3 15 C3 13.68 3 12.36 3 11 C2.01 11 1.02 11 0 11 C0 7.37 0 3.74 0 0 Z " fill="#0F0D0E" transform="translate(65,25)"/>
<path d="M0 0 C1.32 0 2.64 0 4 0 C4 2.64 4 5.28 4 8 C5.32 8 6.64 8 8 8 C8 9.32 8 10.64 8 12 C9.32 12 10.64 12 12 12 C12 12.99 12 13.98 12 15 C13.32 15 14.64 15 16 15 C16 14.01 16 13.02 16 12 C17.32 12 18.64 12 20 12 C20 12.99 20 13.98 20 15 C21.32 15 22.64 15 24 15 C24 14.01 24 13.02 24 12 C25.32 12 26.64 12 28 12 C28 10.68 28 9.36 28 8 C30.64 8 33.28 8 36 8 C36 9.32 36 10.64 36 12 C37.32 12 38.64 12 40 12 C40 12.99 40 13.98 40 15 C42.31 15 44.62 15 47 15 C47 14.01 47 13.02 47 12 C48.32 12 49.64 12 51 12 C51 12.99 51 13.98 51 15 C52.32 15 53.64 15 55 15 C55 14.01 55 13.02 55 12 C56.32 12 57.64 12 59 12 C59 10.68 59 9.36 59 8 C61.64 8 64.28 8 67 8 C67 9.32 67 10.64 67 12 C68.32 12 69.64 12 71 12 C71 12.99 71 13.98 71 15 C72.32 15 73.64 15 75 15 C75 14.01 75 13.02 75 12 C76.32 12 77.64 12 79 12 C79 12.99 79 13.98 79 15 C81.31 15 83.62 15 86 15 C86 14.01 86 13.02 86 12 C87.32 12 88.64 12 90 12 C90 10.68 90 9.36 90 8 C92.64 8 95.28 8 98 8 C98 9.32 98 10.64 98 12 C99.32 12 100.64 12 102 12 C102 12.99 102 13.98 102 15 C103.32 15 104.64 15 106 15 C106 14.01 106 13.02 106 12 C107.32 12 108.64 12 110 12 C110 12.99 110 13.98 110 15 C111.32 15 112.64 15 114 15 C114 14.01 114 13.02 114 12 C115.32 12 116.64 12 118 12 C118 10.68 118 9.36 118 8 C119.32 8 120.64 8 122 8 C122 5.36 122 2.72 122 0 C123.32 0 124.64 0 126 0 C126 6.27 126 12.54 126 19 C124.68 19 123.36 19 122 19 C122 20.32 122 21.64 122 23 C120.68 23 119.36 23 118 23 C118 24.32 118 25.64 118 27 C81.7 27 45.4 27 8 27 C8 25.68 8 24.36 8 23 C6.68 23 5.36 23 4 23 C4 21.68 4 20.36 4 19 C2.68 19 1.36 19 0 19 C0 12.73 0 6.46 0 0 Z " fill="#0D622F" transform="translate(23,101)"/>
<path d="M0 0 C36.3 0 72.6 0 110 0 C110 1.32 110 2.64 110 4 C111.32 4 112.64 4 114 4 C114 6.64 114 9.28 114 12 C112.68 12 111.36 12 110 12 C110 13.32 110 14.64 110 16 C108.68 16 107.36 16 106 16 C106 16.99 106 17.98 106 19 C104.68 19 103.36 19 102 19 C102 18.01 102 17.02 102 16 C100.68 16 99.36 16 98 16 C98 16.99 98 17.98 98 19 C96.68 19 95.36 19 94 19 C94 18.01 94 17.02 94 16 C92.68 16 91.36 16 90 16 C90 14.68 90 13.36 90 12 C87.36 12 84.72 12 82 12 C82 13.32 82 14.64 82 16 C80.68 16 79.36 16 78 16 C78 16.99 78 17.98 78 19 C75.69 19 73.38 19 71 19 C71 18.01 71 17.02 71 16 C69.68 16 68.36 16 67 16 C67 16.99 67 17.98 67 19 C65.68 19 64.36 19 63 19 C63 18.01 63 17.02 63 16 C61.68 16 60.36 16 59 16 C59 14.68 59 13.36 59 12 C56.36 12 53.72 12 51 12 C51 13.32 51 14.64 51 16 C49.68 16 48.36 16 47 16 C47 16.99 47 17.98 47 19 C45.68 19 44.36 19 43 19 C43 18.01 43 17.02 43 16 C41.68 16 40.36 16 39 16 C39 16.99 39 17.98 39 19 C36.69 19 34.38 19 32 19 C32 18.01 32 17.02 32 16 C30.68 16 29.36 16 28 16 C28 14.68 28 13.36 28 12 C25.36 12 22.72 12 20 12 C20 13.32 20 14.64 20 16 C18.68 16 17.36 16 16 16 C16 16.99 16 17.98 16 19 C14.68 19 13.36 19 12 19 C12 18.01 12 17.02 12 16 C10.68 16 9.36 16 8 16 C8 16.99 8 17.98 8 19 C6.68 19 5.36 19 4 19 C4 18.01 4 17.02 4 16 C2.68 16 1.36 16 0 16 C0 14.68 0 13.36 0 12 C-1.32 12 -2.64 12 -4 12 C-4 9.36 -4 6.72 -4 4 C-2.68 4 -1.36 4 0 4 C0 2.68 0 1.36 0 0 Z " fill="#4EBD27" transform="translate(31,97)"/>
<path d="M0 0 C36.3 0 72.6 0 110 0 C110 1.32 110 2.64 110 4 C111.32 4 112.64 4 114 4 C114 6.64 114 9.28 114 12 C112.68 12 111.36 12 110 12 C110 10.68 110 9.36 110 8 C108.68 8 107.36 8 106 8 C106 6.68 106 5.36 106 4 C104.68 4 103.36 4 102 4 C102 6.64 102 9.28 102 12 C99.36 12 96.72 12 94 12 C94 9.36 94 6.72 94 4 C92.68 4 91.36 4 90 4 C90 5.32 90 6.64 90 8 C88.68 8 87.36 8 86 8 C86 6.68 86 5.36 86 4 C81.05 4 76.1 4 71 4 C71 6.64 71 9.28 71 12 C68.36 12 65.72 12 63 12 C63 9.36 63 6.72 63 4 C60.36 4 57.72 4 55 4 C55 5.32 55 6.64 55 8 C53.68 8 52.36 8 51 8 C51 6.68 51 5.36 51 4 C47.04 4 43.08 4 39 4 C39 6.64 39 9.28 39 12 C36.69 12 34.38 12 32 12 C32 9.36 32 6.72 32 4 C29.36 4 26.72 4 24 4 C24 5.32 24 6.64 24 8 C22.68 8 21.36 8 20 8 C20 6.68 20 5.36 20 4 C17.36 4 14.72 4 12 4 C12 6.64 12 9.28 12 12 C9.36 12 6.72 12 4 12 C4 10.68 4 9.36 4 8 C2.68 8 1.36 8 0 8 C0 9.32 0 10.64 0 12 C-1.32 12 -2.64 12 -4 12 C-4 9.36 -4 6.72 -4 4 C-2.68 4 -1.36 4 0 4 C0 2.68 0 1.36 0 0 Z " fill="#95D836" transform="translate(31,97)"/>
<path d="M0 0 C6.6 0 13.2 0 20 0 C20 1.32 20 2.64 20 4 C25.28 4 30.56 4 36 4 C36 2.68 36 1.36 36 0 C36.99 0 37.98 0 39 0 C39 1.32 39 2.64 39 4 C42.96 4 46.92 4 51 4 C51 2.68 51 1.36 51 0 C52.32 0 53.64 0 55 0 C55 1.32 55 2.64 55 4 C57.64 4 60.28 4 63 4 C63 2.68 63 1.36 63 0 C64.32 0 65.64 0 67 0 C67 1.32 67 2.64 67 4 C77.23 4 87.46 4 98 4 C98 2.68 98 1.36 98 0 C104.6 0 111.2 0 118 0 C118 1.32 118 2.64 118 4 C116.68 4 115.36 4 114 4 C114 5.32 114 6.64 114 8 C77.7 8 41.4 8 4 8 C4 6.68 4 5.36 4 4 C2.68 4 1.36 4 0 4 C0 2.68 0 1.36 0 0 Z " fill="#231D16" transform="translate(27,120)"/>
<path d="M0 0 C8.91 0 17.82 0 27 0 C27 6.27 27 12.54 27 19 C18.09 19 9.18 19 0 19 C0 12.73 0 6.46 0 0 Z " fill="#B3AAA1" transform="translate(84,52)"/>
<path d="M0 0 C1.32 0 2.64 0 4 0 C4 2.64 4 5.28 4 8 C5.32 8 6.64 8 8 8 C8 9.32 8 10.64 8 12 C9.32 12 10.64 12 12 12 C12 12.99 12 13.98 12 15 C13.32 15 14.64 15 16 15 C16 14.01 16 13.02 16 12 C17.32 12 18.64 12 20 12 C20 12.99 20 13.98 20 15 C21.32 15 22.64 15 24 15 C24 14.01 24 13.02 24 12 C25.32 12 26.64 12 28 12 C28 10.68 28 9.36 28 8 C30.64 8 33.28 8 36 8 C36 9.32 36 10.64 36 12 C37.32 12 38.64 12 40 12 C40 15.63 40 19.26 40 23 C34.72 23 29.44 23 24 23 C24 21.68 24 20.36 24 19 C16.08 19 8.16 19 0 19 C0 12.73 0 6.46 0 0 Z " fill="#67332D" transform="translate(23,101)"/>
<path d="M0 0 C11.22 0 22.44 0 34 0 C34 0.66 34 1.32 34 2 C49.18 2 64.36 2 80 2 C80 1.34 80 0.68 80 0 C89.9 0 99.8 0 110 0 C110 1.32 110 2.64 110 4 C73.7 4 37.4 4 0 4 C0 2.68 0 1.36 0 0 Z " fill="#231D16" transform="translate(31,93)"/>
<path d="M0 0 C10.56 0 21.12 0 32 0 C32 1.32 32 2.64 32 4 C22.76 4 13.52 4 4 4 C4 11.59 4 19.18 4 27 C2.68 27 1.36 27 0 27 C0 18.09 0 9.18 0 0 Z " fill="#7C776F" transform="translate(76,44)"/>
<path d="M0 0 C1.32 0 2.64 0 4 0 C4 6.27 4 12.54 4 19 C-3.92 19 -11.84 19 -20 19 C-20 17.68 -20 16.36 -20 15 C-18.68 15 -17.36 15 -16 15 C-16 14.01 -16 13.02 -16 12 C-14.68 12 -13.36 12 -12 12 C-12 12.99 -12 13.98 -12 15 C-10.68 15 -9.36 15 -8 15 C-8 14.01 -8 13.02 -8 12 C-6.68 12 -5.36 12 -4 12 C-4 10.68 -4 9.36 -4 8 C-2.68 8 -1.36 8 0 8 C0 5.36 0 2.72 0 0 Z " fill="#0B6A2F" transform="translate(145,101)"/>
<path d="M0 0 C1.32 0 2.64 0 4 0 C4 2.64 4 5.28 4 8 C5.32 8 6.64 8 8 8 C8 9.32 8 10.64 8 12 C9.32 12 10.64 12 12 12 C12 12.99 12 13.98 12 15 C13.32 15 14.64 15 16 15 C16 14.01 16 13.02 16 12 C17.32 12 18.64 12 20 12 C20 12.99 20 13.98 20 15 C21.32 15 22.64 15 24 15 C24 16.32 24 17.64 24 19 C16.08 19 8.16 19 0 19 C0 12.73 0 6.46 0 0 Z " fill="#0B6A2F" transform="translate(23,101)"/>
<path d="M0 0 C7.92 0 15.84 0 24 0 C24 1.32 24 2.64 24 4 C17.4 4 10.8 4 4 4 C4 7.96 4 11.92 4 16 C-2.6 16 -9.2 16 -16 16 C-16 14.68 -16 13.36 -16 12 C-10.72 12 -5.44 12 0 12 C0 8.04 0 4.08 0 0 Z " fill="#EBA724" transform="translate(84,75)"/>
<path d="M0 0 C6.6 0 13.2 0 20 0 C20 1.32 20 2.64 20 4 C21.32 4 22.64 4 24 4 C24 5.32 24 6.64 24 8 C22.68 8 21.36 8 20 8 C20 9.32 20 10.64 20 12 C17.36 12 14.72 12 12 12 C12 10.68 12 9.36 12 8 C10.68 8 9.36 8 8 8 C8 6.68 8 5.36 8 4 C5.36 4 2.72 4 0 4 C0 2.68 0 1.36 0 0 Z " fill="#D2202C" transform="translate(72,32)"/>
<path d="M0 0 C3.96 0 7.92 0 12 0 C12 3.96 12 7.92 12 12 C6.72 12 1.44 12 -4 12 C-4 10.68 -4 9.36 -4 8 C-2.68 8 -1.36 8 0 8 C0 5.36 0 2.72 0 0 Z " fill="#0A7030" transform="translate(72,75)"/>
<path d="M0 0 C1.32 0 2.64 0 4 0 C4 0.99 4 1.98 4 3 C5.32 3 6.64 3 8 3 C8 2.01 8 1.02 8 0 C9.32 0 10.64 0 12 0 C12 2.31 12 4.62 12 7 C10.68 7 9.36 7 8 7 C8 8.32 8 9.64 8 11 C4.04 11 0.08 11 -4 11 C-4 9.68 -4 8.36 -4 7 C-4.99 7 -5.98 7 -7 7 C-7 5.68 -7 4.36 -7 3 C-4.69 3 -2.38 3 0 3 C0 2.01 0 1.02 0 0 Z " fill="#0A7030" transform="translate(70,113)"/>
<path d="M0 0 C5.28 0 10.56 0 16 0 C16 2.64 16 5.28 16 8 C10.72 8 5.44 8 0 8 C0 5.36 0 2.72 0 0 Z " fill="#7C776F" transform="translate(92,83)"/>
<path d="M0 0 C2.64 0 5.28 0 8 0 C8 1.32 8 2.64 8 4 C9.32 4 10.64 4 12 4 C12 4.99 12 5.98 12 7 C6.72 7 1.44 7 -4 7 C-4 6.01 -4 5.02 -4 4 C-2.68 4 -1.36 4 0 4 C0 2.68 0 1.36 0 0 Z " fill="#0F5B2E" transform="translate(113,109)"/>
<path d="M0 0 C2.64 0 5.28 0 8 0 C8 1.32 8 2.64 8 4 C9.32 4 10.64 4 12 4 C12 4.99 12 5.98 12 7 C6.72 7 1.44 7 -4 7 C-4 6.01 -4 5.02 -4 4 C-2.68 4 -1.36 4 0 4 C0 2.68 0 1.36 0 0 Z " fill="#0F5B2E" transform="translate(51,109)"/>
<path d="M0 0 C1.32 0 2.64 0 4 0 C4 6.27 4 12.54 4 19 C2.68 19 1.36 19 0 19 C0 12.73 0 6.46 0 0 Z " fill="#231D16" transform="translate(145,101)"/>
<path d="M0 0 C1.32 0 2.64 0 4 0 C4 6.27 4 12.54 4 19 C2.68 19 1.36 19 0 19 C0 12.73 0 6.46 0 0 Z " fill="#231D16" transform="translate(23,101)"/>
<path d="M0 0 C1.32 0 2.64 0 4 0 C4 6.27 4 12.54 4 19 C2.68 19 1.36 19 0 19 C0 12.73 0 6.46 0 0 Z " fill="#7C776F" transform="translate(76,52)"/>
<path d="M0 0 C5.28 0 10.56 0 16 0 C16 1.32 16 2.64 16 4 C10.72 4 5.44 4 0 4 C0 2.68 0 1.36 0 0 Z " fill="#173B27" transform="translate(129,120)"/>
<path d="M0 0 C5.28 0 10.56 0 16 0 C16 1.32 16 2.64 16 4 C10.72 4 5.44 4 0 4 C0 2.68 0 1.36 0 0 Z " fill="#67332D" transform="translate(109,120)"/>
<path d="M0 0 C5.28 0 10.56 0 16 0 C16 1.32 16 2.64 16 4 C10.72 4 5.44 4 0 4 C0 2.68 0 1.36 0 0 Z " fill="#173B27" transform="translate(27,120)"/>
<path d="M0 0 C5.28 0 10.56 0 16 0 C16 1.32 16 2.64 16 4 C10.72 4 5.44 4 0 4 C0 2.68 0 1.36 0 0 Z " fill="#231D16" transform="translate(109,116)"/>
<path d="M0 0 C5.28 0 10.56 0 16 0 C16 1.32 16 2.64 16 4 C10.72 4 5.44 4 0 4 C0 2.68 0 1.36 0 0 Z " fill="#231D16" transform="translate(47,116)"/>
<path d="M0 0 C3.96 0 7.92 0 12 0 C12 1.32 12 2.64 12 4 C9.36 4 6.72 4 4 4 C4 5.32 4 6.64 4 8 C2.68 8 1.36 8 0 8 C0 5.36 0 2.72 0 0 Z " fill="#EADFD1" transform="translate(84,52)"/>
<path d="M0 0 C3.96 0 7.92 0 12 0 C12 1.32 12 2.64 12 4 C9.36 4 6.72 4 4 4 C4 5.32 4 6.64 4 8 C2.68 8 1.36 8 0 8 C0 5.36 0 2.72 0 0 Z " fill="#EADFD1" transform="translate(76,44)"/>
<path d="M0 0 C4.95 0 9.9 0 15 0 C15 1.32 15 2.64 15 4 C10.05 4 5.1 4 0 4 C0 2.68 0 1.36 0 0 Z " fill="#14462D" transform="translate(94,120)"/>
<path d="M0 0 C3.96 0 7.92 0 12 0 C12 1.32 12 2.64 12 4 C8.04 4 4.08 4 0 4 C0 2.68 0 1.36 0 0 Z " fill="#14462D" transform="translate(66,120)"/>
<path d="M0 0 C1.32 0 2.64 0 4 0 C4 3.96 4 7.92 4 12 C2.68 12 1.36 12 0 12 C0 8.04 0 4.08 0 0 Z " fill="#0E0D0E" transform="translate(104,56)"/>
<path d="M0 0 C1.32 0 2.64 0 4 0 C4 3.96 4 7.92 4 12 C2.68 12 1.36 12 0 12 C0 8.04 0 4.08 0 0 Z " fill="#0E0D0E" transform="translate(96,56)"/>
<path d="M0 0 C1.32 0 2.64 0 4 0 C4 3.96 4 7.92 4 12 C2.68 12 1.36 12 0 12 C0 8.04 0 4.08 0 0 Z " fill="#0E0D0E" transform="translate(88,56)"/>
<path d="M0 0 C2.64 0 5.28 0 8 0 C8 1.32 8 2.64 8 4 C5.36 4 2.72 4 0 4 C0 2.68 0 1.36 0 0 Z " fill="#67332D" transform="translate(82,120)"/>
<path d="M0 0 C2.64 0 5.28 0 8 0 C8 1.32 8 2.64 8 4 C5.36 4 2.72 4 0 4 C0 2.68 0 1.36 0 0 Z " fill="#231D16" transform="translate(82,116)"/>
<path d="M0 0 C2.64 0 5.28 0 8 0 C8 1.32 8 2.64 8 4 C5.36 4 2.72 4 0 4 C0 2.68 0 1.36 0 0 Z " fill="#0A7030" transform="translate(113,109)"/>
<path d="M0 0 C2.64 0 5.28 0 8 0 C8 1.32 8 2.64 8 4 C5.36 4 2.72 4 0 4 C0 2.68 0 1.36 0 0 Z " fill="#0A7030" transform="translate(82,109)"/>
<path d="M0 0 C2.64 0 5.28 0 8 0 C8 1.32 8 2.64 8 4 C5.36 4 2.72 4 0 4 C0 2.68 0 1.36 0 0 Z " fill="#0A7030" transform="translate(51,109)"/>
</svg>
